<svg width="548" height="115" viewBox="0 0 548 115" fill="none" xmlns="http://www.w3.org/2000/svg">
<path d="M142.296 91V23.8H185.4V35.8H155.448V51.928H180.408V63.928H155.448V91H142.296ZM221.87 91L221.486 81.304V66.712C221.486 63.832 221.166 61.368 220.526 59.32C219.95 57.272 218.99 55.704 217.646 54.616C216.366 53.464 214.606 52.888 212.366 52.888C210.318 52.888 208.462 53.336 206.798 54.232C205.134 55.128 203.726 56.504 202.574 58.36L191.438 54.52C192.334 52.472 193.646 50.488 195.374 48.568C197.102 46.584 199.342 44.984 202.094 43.768C204.91 42.488 208.334 41.848 212.366 41.848C217.23 41.848 221.262 42.776 224.462 44.632C227.726 46.488 230.126 49.112 231.662 52.504C233.262 55.832 234.03 59.8 233.966 64.408L233.678 91H221.87ZM208.43 92.152C202.67 92.152 198.19 90.872 194.99 88.312C191.854 85.752 190.286 82.136 190.286 77.464C190.286 72.344 191.982 68.504 195.374 65.944C198.83 63.32 203.662 62.008 209.87 62.008H222.062V71.416H214.286C210.126 71.416 207.246 71.928 205.646 72.952C204.046 73.912 203.246 75.288 203.246 77.08C203.246 78.488 203.886 79.608 205.166 80.44C206.446 81.208 208.238 81.592 210.542 81.592C212.654 81.592 214.51 81.112 216.11 80.152C217.774 79.128 219.086 77.848 220.046 76.312C221.006 74.712 221.486 73.08 221.486 71.416H224.558C224.558 77.944 223.31 83.032 220.814 86.68C218.382 90.328 214.254 92.152 208.43 92.152ZM244.066 91V43H255.97L256.738 51.832V91H244.066ZM275.842 91V66.424H288.514V91H275.842ZM275.842 66.424C275.842 63.16 275.458 60.632 274.69 58.84C273.986 57.048 272.962 55.768 271.618 55C270.274 54.168 268.706 53.752 266.914 53.752C263.65 53.688 261.122 54.68 259.33 56.728C257.602 58.776 256.738 61.816 256.738 65.848H252.514C252.514 60.728 253.25 56.408 254.722 52.888C256.258 49.304 258.37 46.584 261.058 44.728C263.81 42.808 267.01 41.848 270.658 41.848C274.434 41.848 277.666 42.616 280.354 44.152C283.042 45.688 285.09 48.088 286.498 51.352C287.906 54.552 288.578 58.712 288.514 63.832V66.424H275.842ZM316.58 92.152C313.508 92.152 310.628 91.704 307.94 90.808C305.252 89.848 302.884 88.504 300.836 86.776C298.788 84.984 297.188 82.808 296.036 80.248L306.884 75.256C307.844 76.792 309.156 78.136 310.82 79.288C312.484 80.376 314.404 80.92 316.58 80.92C318.692 80.92 320.324 80.632 321.476 80.056C322.628 79.416 323.204 78.52 323.204 77.368C323.204 76.216 322.724 75.384 321.764 74.872C320.868 74.296 319.62 73.816 318.02 73.432L313.604 72.28C308.996 71.064 305.348 69.144 302.66 66.52C300.036 63.832 298.724 60.76 298.724 57.304C298.724 52.376 300.292 48.568 303.428 45.88C306.628 43.192 311.14 41.848 316.964 41.848C319.972 41.848 322.756 42.296 325.316 43.192C327.94 44.088 330.18 45.336 332.036 46.936C333.892 48.536 335.172 50.392 335.876 52.504L325.412 57.304C324.964 56.024 323.876 55 322.148 54.232C320.42 53.4 318.692 52.984 316.964 52.984C315.236 52.984 313.892 53.368 312.932 54.136C312.036 54.84 311.588 55.832 311.588 57.112C311.588 57.944 312.036 58.648 312.932 59.224C313.828 59.736 315.108 60.184 316.772 60.568L323.012 62.104C326.148 62.872 328.644 64.12 330.5 65.848C332.42 67.512 333.796 69.4 334.628 71.512C335.524 73.56 335.972 75.576 335.972 77.56C335.972 80.44 335.108 83 333.38 85.24C331.716 87.416 329.412 89.112 326.468 90.328C323.588 91.544 320.292 92.152 316.58 92.152Z" fill="#018BCC"/>
<path d="M376.016 92.152C369.232 92.152 363.216 90.68 357.968 87.736C352.784 84.728 348.72 80.632 345.776 75.448C342.832 70.2 341.36 64.216 341.36 57.496C341.36 50.648 342.832 44.632 345.776 39.448C348.72 34.2 352.752 30.104 357.872 27.16C363.056 24.216 369.008 22.744 375.728 22.744C382.512 22.744 388.464 24.248 393.584 27.256C398.768 30.2 402.832 34.296 405.776 39.544C408.72 44.728 410.192 50.712 410.192 57.496C410.192 64.216 408.72 70.2 405.776 75.448C402.896 80.632 398.864 84.728 393.68 87.736C388.56 90.68 382.672 92.152 376.016 92.152ZM376.016 80.152C380.112 80.152 383.696 79.192 386.768 77.272C389.904 75.288 392.336 72.6 394.064 69.208C395.856 65.816 396.752 61.912 396.752 57.496C396.752 53.016 395.856 49.08 394.064 45.688C392.272 42.296 389.808 39.64 386.672 37.72C383.536 35.736 379.888 34.744 375.728 34.744C371.696 34.744 368.08 35.736 364.88 37.72C361.744 39.64 359.28 42.296 357.488 45.688C355.696 49.08 354.8 53.016 354.8 57.496C354.8 61.912 355.696 65.816 357.488 69.208C359.28 72.6 361.776 75.288 364.976 77.272C368.176 79.192 371.856 80.152 376.016 80.152ZM419.035 91V43H430.939L431.707 51.832V91H419.035ZM450.811 91V66.424H463.483V91H450.811ZM450.811 66.424C450.811 63.16 450.427 60.632 449.659 58.84C448.955 57.048 447.931 55.768 446.587 55C445.243 54.168 443.675 53.752 441.883 53.752C438.619 53.688 436.091 54.68 434.299 56.728C432.571 58.776 431.707 61.816 431.707 65.848H427.483C427.483 60.728 428.219 56.408 429.691 52.888C431.227 49.304 433.339 46.584 436.027 44.728C438.779 42.808 441.979 41.848 445.627 41.848C449.403 41.848 452.635 42.616 455.323 44.152C458.011 45.688 460.059 48.088 461.467 51.352C462.875 54.552 463.547 58.712 463.483 63.832V66.424H450.811ZM473.597 91V23.8H486.269V91H473.597ZM506.822 111.352C505.094 111.352 503.174 111 501.062 110.296C499.014 109.656 497.19 108.888 495.59 107.992L500.294 97.72C501.382 98.296 502.374 98.744 503.27 99.064C504.23 99.448 505.062 99.64 505.766 99.64C507.11 99.64 508.294 99.256 509.318 98.488C510.342 97.784 511.174 96.728 511.814 95.32L517.478 81.976L532.742 43H546.662L524.87 95.128C523.526 98.328 522.118 101.144 520.646 103.576C519.174 106.072 517.35 107.992 515.174 109.336C513.062 110.68 510.278 111.352 506.822 111.352ZM514.118 91L492.134 43H506.054L522.086 81.976L526.214 91H514.118Z" fill="#05AEEE"/>
<path d="M32.5311 19.1223C42.6224 19.1223 51.7842 27.7136 51.7842 27.7136L41.1618 71.3309C20.4481 70.2736 12.6141 54.5889 11.2863 46.8788H35.8506C26.556 46.4382 6.37344 40.2701 0 19.1223H32.5311Z" fill="#05AEEE"/>
<path d="M76.8275 17C99.5665 17.0001 118 35.4339 118 58.1729C118 80.9117 99.5664 99.3456 76.8275 99.3457C54.0885 99.3457 35.6548 80.9118 35.6547 58.1729C35.6547 35.4338 54.0885 17 76.8275 17ZM76.8275 44.5898C69.326 44.5898 63.2445 50.6713 63.2445 58.1729C63.2446 65.6743 69.326 71.7559 76.8275 71.7559C84.3289 71.7558 90.4104 65.6742 90.4105 58.1729C90.4105 50.6714 84.329 44.5899 76.8275 44.5898Z" fill="#018BCC"/>
</svg>
