<svg width="547" height="115" viewBox="0 0 547 115" fill="none" xmlns="http://www.w3.org/2000/svg">
<path d="M141.296 91V23.8H184.4V35.8H154.448V51.928H179.408V63.928H154.448V91H141.296ZM220.87 91L220.486 81.304V66.712C220.486 63.832 220.166 61.368 219.526 59.32C218.95 57.272 217.99 55.704 216.646 54.616C215.366 53.464 213.606 52.888 211.366 52.888C209.318 52.888 207.462 53.336 205.798 54.232C204.134 55.128 202.726 56.504 201.574 58.36L190.438 54.52C191.334 52.472 192.646 50.488 194.374 48.568C196.102 46.584 198.342 44.984 201.094 43.768C203.91 42.488 207.334 41.848 211.366 41.848C216.23 41.848 220.262 42.776 223.462 44.632C226.726 46.488 229.126 49.112 230.662 52.504C232.262 55.832 233.03 59.8 232.966 64.408L232.678 91H220.87ZM207.43 92.152C201.67 92.152 197.19 90.872 193.99 88.312C190.854 85.752 189.286 82.136 189.286 77.464C189.286 72.344 190.982 68.504 194.374 65.944C197.83 63.32 202.662 62.008 208.87 62.008H221.062V71.416H213.286C209.126 71.416 206.246 71.928 204.646 72.952C203.046 73.912 202.246 75.288 202.246 77.08C202.246 78.488 202.886 79.608 204.166 80.44C205.446 81.208 207.238 81.592 209.542 81.592C211.654 81.592 213.51 81.112 215.11 80.152C216.774 79.128 218.086 77.848 219.046 76.312C220.006 74.712 220.486 73.08 220.486 71.416H223.558C223.558 77.944 222.31 83.032 219.814 86.68C217.382 90.328 213.254 92.152 207.43 92.152ZM243.066 91V43H254.97L255.738 51.832V91H243.066ZM274.842 91V66.424H287.514V91H274.842ZM274.842 66.424C274.842 63.16 274.458 60.632 273.69 58.84C272.986 57.048 271.962 55.768 270.618 55C269.274 54.168 267.706 53.752 265.914 53.752C262.65 53.688 260.122 54.68 258.33 56.728C256.602 58.776 255.738 61.816 255.738 65.848H251.514C251.514 60.728 252.25 56.408 253.722 52.888C255.258 49.304 257.37 46.584 260.058 44.728C262.81 42.808 266.01 41.848 269.658 41.848C273.434 41.848 276.666 42.616 279.354 44.152C282.042 45.688 284.09 48.088 285.498 51.352C286.906 54.552 287.578 58.712 287.514 63.832V66.424H274.842ZM315.58 92.152C312.508 92.152 309.628 91.704 306.94 90.808C304.252 89.848 301.884 88.504 299.836 86.776C297.788 84.984 296.188 82.808 295.036 80.248L305.884 75.256C306.844 76.792 308.156 78.136 309.82 79.288C311.484 80.376 313.404 80.92 315.58 80.92C317.692 80.92 319.324 80.632 320.476 80.056C321.628 79.416 322.204 78.52 322.204 77.368C322.204 76.216 321.724 75.384 320.764 74.872C319.868 74.296 318.62 73.816 317.02 73.432L312.604 72.28C307.996 71.064 304.348 69.144 301.66 66.52C299.036 63.832 297.724 60.76 297.724 57.304C297.724 52.376 299.292 48.568 302.428 45.88C305.628 43.192 310.14 41.848 315.964 41.848C318.972 41.848 321.756 42.296 324.316 43.192C326.94 44.088 329.18 45.336 331.036 46.936C332.892 48.536 334.172 50.392 334.876 52.504L324.412 57.304C323.964 56.024 322.876 55 321.148 54.232C319.42 53.4 317.692 52.984 315.964 52.984C314.236 52.984 312.892 53.368 311.932 54.136C311.036 54.84 310.588 55.832 310.588 57.112C310.588 57.944 311.036 58.648 311.932 59.224C312.828 59.736 314.108 60.184 315.772 60.568L322.012 62.104C325.148 62.872 327.644 64.12 329.5 65.848C331.42 67.512 332.796 69.4 333.628 71.512C334.524 73.56 334.972 75.576 334.972 77.56C334.972 80.44 334.108 83 332.38 85.24C330.716 87.416 328.412 89.112 325.468 90.328C322.588 91.544 319.292 92.152 315.58 92.152Z" fill="white"/>
<path d="M375.016 92.152C368.232 92.152 362.216 90.68 356.968 87.736C351.784 84.728 347.72 80.632 344.776 75.448C341.832 70.2 340.36 64.216 340.36 57.496C340.36 50.648 341.832 44.632 344.776 39.448C347.72 34.2 351.752 30.104 356.872 27.16C362.056 24.216 368.008 22.744 374.728 22.744C381.512 22.744 387.464 24.248 392.584 27.256C397.768 30.2 401.832 34.296 404.776 39.544C407.72 44.728 409.192 50.712 409.192 57.496C409.192 64.216 407.72 70.2 404.776 75.448C401.896 80.632 397.864 84.728 392.68 87.736C387.56 90.68 381.672 92.152 375.016 92.152ZM375.016 80.152C379.112 80.152 382.696 79.192 385.768 77.272C388.904 75.288 391.336 72.6 393.064 69.208C394.856 65.816 395.752 61.912 395.752 57.496C395.752 53.016 394.856 49.08 393.064 45.688C391.272 42.296 388.808 39.64 385.672 37.72C382.536 35.736 378.888 34.744 374.728 34.744C370.696 34.744 367.08 35.736 363.88 37.72C360.744 39.64 358.28 42.296 356.488 45.688C354.696 49.08 353.8 53.016 353.8 57.496C353.8 61.912 354.696 65.816 356.488 69.208C358.28 72.6 360.776 75.288 363.976 77.272C367.176 79.192 370.856 80.152 375.016 80.152ZM418.035 91V43H429.939L430.707 51.832V91H418.035ZM449.811 91V66.424H462.483V91H449.811ZM449.811 66.424C449.811 63.16 449.427 60.632 448.659 58.84C447.955 57.048 446.931 55.768 445.587 55C444.243 54.168 442.675 53.752 440.883 53.752C437.619 53.688 435.091 54.68 433.299 56.728C431.571 58.776 430.707 61.816 430.707 65.848H426.483C426.483 60.728 427.219 56.408 428.691 52.888C430.227 49.304 432.339 46.584 435.027 44.728C437.779 42.808 440.979 41.848 444.627 41.848C448.403 41.848 451.635 42.616 454.323 44.152C457.011 45.688 459.059 48.088 460.467 51.352C461.875 54.552 462.547 58.712 462.483 63.832V66.424H449.811ZM472.597 91V23.8H485.269V91H472.597ZM505.822 111.352C504.094 111.352 502.174 111 500.062 110.296C498.014 109.656 496.19 108.888 494.59 107.992L499.294 97.72C500.382 98.296 501.374 98.744 502.27 99.064C503.23 99.448 504.062 99.64 504.766 99.64C506.11 99.64 507.294 99.256 508.318 98.488C509.342 97.784 510.174 96.728 510.814 95.32L516.478 81.976L531.742 43H545.662L523.87 95.128C522.526 98.328 521.118 101.144 519.646 103.576C518.174 106.072 516.35 107.992 514.174 109.336C512.062 110.68 509.278 111.352 505.822 111.352ZM513.118 91L491.134 43H505.054L521.086 81.976L525.214 91H513.118Z" fill="#CCEFFC"/>
<path d="M32.5329 19.1224C42.6248 19.1224 51.7871 27.7142 51.7871 27.7142L41.1641 71.334C20.4493 70.2766 12.6148 54.5911 11.2869 46.8805H35.8526C26.5575 46.4399 6.3738 40.2714 0 19.1224H32.5329Z" fill="#CCEFFC"/>
<path d="M76.8315 17C99.5718 17 118.006 35.4346 118.006 58.1748C118.006 80.9151 99.5718 99.3496 76.8315 99.3496C54.0913 99.3495 35.6567 80.9151 35.6567 58.1748C35.6568 35.4346 54.0913 17.0001 76.8315 17ZM76.8315 44.5918C69.3297 44.5919 63.2486 50.673 63.2485 58.1748C63.2485 65.6767 69.3296 71.7587 76.8315 71.7588C84.3335 71.7588 90.4155 65.6768 90.4155 58.1748C90.4154 50.6729 84.3334 44.5918 76.8315 44.5918Z" fill="white"/>
</svg>
